<svg width="33" height="33" fill="none" xmlns="http://www.w3.org/2000/svg"><g clip-path="url('#clip0_123_4')"><path d="m19.238 19.994 1.768-1.768 7.513 7.513-1.768 1.768-7.513-7.513Z" fill="#616161"/><path d="M13.5 2.5a10 10 0 1 0 0 20 10 10 0 0 0 0-20Z" fill="#616161"/><path d="m21.285 22.088 1.768-1.768 5.436 5.436-1.768 1.768-5.436-5.436Z" fill="#37474F"/><path d="M13.5 4.375a8.125 8.125 0 1 0 0 16.25 8.125 8.125 0 0 0 0-16.25Z" fill="#64B5F6"/><path d="M17.813 8.875a5.654 5.654 0 0 0-4.313-2c-1.688 0-3.25.75-4.313 2-.25.25-.187.688.063.875.25.25.688.188.875-.062.875-1 2.063-1.563 3.375-1.563 1.313 0 2.5.563 3.375 1.563.125.125.313.25.5.25.125 0 .313-.063.375-.125.25-.25.25-.688.063-.938Z" fill="#BBDEFB"/></g><defs><clipPath id="clip0_123_4"><path fill="#fff" transform="translate(.784 .411)" d="M0 0h31.735v31.735H0z"/></clipPath></defs></svg>