<svg width="78" height="90" fill="none" xmlns="http://www.w3.org/2000/svg"><path style="mix-blend-mode:multiply" opacity=".8" d="M38.93 1.41c10.63 0 23.35 6.59 30.92 16 4 5 8.29 12.92 6.15 22.52-2.06 9.25-5.52 14.25-9.17 19.54-4.42 6.41-9.43 13.67-12.65 29.81h-30.5c-3.23-16.14-8.24-23.4-12.66-29.81-3.65-5.29-7.1-10.29-9.17-19.54C-.29 30.33 4.01 22.38 8 17.41c7.57-9.45 20.29-16 30.93-16Zm0-.5C21.22.91-3.28 19.27 1.36 40.08 6 60.89 17.46 60.2 23.27 89.82h31.32c5.8-29.62 17.25-28.93 21.9-49.74C81.14 19.27 56.63.91 38.93.91Z" fill="url('#paint0_radial_702_176')"/><defs><radialGradient id="paint0_radial_702_176" cx="0" cy="0" r="1" gradientUnits="userSpaceOnUse" gradientTransform="translate(38.93 45.36) scale(41.42)"><stop offset=".06" stop-color="#fff"/><stop offset=".15" stop-color="#FEFBFD"/><stop offset=".99" stop-color="#FFBEDE"/></radialGradient></defs></svg>