<svg width="476" height="304" fill="none" xmlns="http://www.w3.org/2000/svg"><path opacity=".1" d="M145.775 1.19c72.749-4.485 149.021 18.875 137.811 52.736-11.211 33.861 59.94-12.027 88.339.182 20.216 8.691 12.135 35.152 21.914 45.814 22.426 24.44 45.359-6.338 73.894 12.132 28.536 18.471-29.89 190.857-59.706 191.82l-340.046-2.188-24.403-2.33s-67.503-39.22-19.215-75.394c32.65-24.461 9.157-42.221 5.606-53.42-4.077-12.857-13.591-35.309 27.858-51.789 41.45-16.479 30.748-52.331 29.728-59.756-1.02-7.425-14.521-53.323 58.22-57.807Z" fill="#9BC1F9"/><path d="M63.13 225.412c-7.822-12.387-9.716-27.634-9.924-38.244-.23-11.517 1.418-20.211 1.435-20.297l-.542-.185c-.016.086-1.679 8.844-1.45 20.437.212 10.716 2.127 26.117 10.046 38.659l.435-.37Z" fill="#3C8F7C"/><path d="M56.386 164.697c-.094 2.611-1.072 4.839-2.543 6.235-1.355-1.764-2.163-4.22-2.069-6.833.094-2.613 1.072-4.84 2.543-6.234 1.355 1.763 2.164 4.22 2.07 6.832ZM51.588 170.9c1.331 2.207 1.806 4.758 1.48 7.001-1.938-.429-3.848-1.832-5.18-4.037-1.33-2.206-1.803-4.758-1.476-7.002 1.937.429 3.847 1.832 5.176 4.038ZM48.995 178.084c1.94 1.295 3.355 3.31 3.971 5.654-1.831.65-4.015.385-6.01-.932-1.941-1.293-3.357-3.309-3.972-5.653 1.832-.648 4.015-.384 6.011.931ZM53.026 193.066c.758-1.167-.349-3.375-2.472-4.932-2.123-1.556-4.46-1.871-5.217-.703-.759 1.167.348 3.375 2.471 4.932 2.124 1.556 4.46 1.871 5.218.703ZM56.181 175.986a5.877 5.877 0 0 1 2.604-.922 5.797 5.797 0 0 1 2.721.379 7.573 7.573 0 0 1-1.105 2.795 7.088 7.088 0 0 1-2.076 2.081 5.877 5.877 0 0 1-2.603.922 5.797 5.797 0 0 1-2.721-.379 7.582 7.582 0 0 1 1.105-2.795 7.098 7.098 0 0 1 2.075-2.081ZM56.219 182.799a5.876 5.876 0 0 1 2.603-.922 5.785 5.785 0 0 1 2.722.38 7.58 7.58 0 0 1-1.106 2.794 7.092 7.092 0 0 1-2.075 2.079c-.79.514-1.681.83-2.604.924a5.776 5.776 0 0 1-2.722-.379 7.597 7.597 0 0 1 1.106-2.795 7.113 7.113 0 0 1 2.076-2.081Z" fill="#3C8F7C"/><path d="M55.069 286.25c-16.398-6.343-27.867-21.47-34.6-33.045-7.312-12.563-10.777-23.771-10.811-23.883l-.724.306c.034.112 3.523 11.406 10.88 24.054 6.799 11.689 18.384 26.962 34.988 33.391l.267-.823Z" fill="#96D9C9"/><path d="M10.299 225.251a13.29 13.29 0 0 1 .953 9.333c-2.603-.675-5.022-2.634-6.516-5.622a13.289 13.289 0 0 1-.953-9.333c2.606.674 5.022 2.634 6.516 5.622ZM8.693 236.677a10.424 10.424 0 0 1 3.61 2.518 11.2 11.2 0 0 1 2.346 3.853 9.54 9.54 0 0 1-4.11 1.171 9.458 9.458 0 0 1-4.197-.751 10.418 10.418 0 0 1-3.61-2.518 11.198 11.198 0 0 1-2.343-3.853 9.465 9.465 0 0 1 8.304-.42ZM10.93 254.255c4.213-.637 7.416-2.748 7.152-4.713-.264-1.966-3.893-3.042-8.107-2.404-4.213.638-7.416 2.748-7.152 4.714.264 1.965 3.893 3.041 8.107 2.403ZM16.71 264.246c4.214-.637 7.416-2.748 7.152-4.714-.263-1.965-3.893-3.041-8.107-2.404-4.213.638-7.415 2.749-7.152 4.714.264 1.966 3.894 3.042 8.107 2.404Z" fill="#96D9C9"/><path d="M15.487 241.541c.162-3.154 1.405-6.002 3.227-7.95 1.627 1.877 2.561 4.683 2.395 7.839-.166 3.156-1.404 6.003-3.226 7.951-1.622-1.883-2.562-4.689-2.396-7.84ZM21.524 251.878c.122-3.156 1.32-6.028 3.117-8.007 1.648 1.844 2.627 4.63 2.505 7.787-.122 3.158-1.322 6.029-3.117 8.006-1.648-1.844-2.629-4.63-2.505-7.786ZM25.808 267.431a3.836 3.836 0 0 1 3.525-.173 5.091 5.091 0 0 1-.849 1.799c-.396.532-.89.972-1.452 1.293a3.878 3.878 0 0 1-1.744.516c-.61.03-1.22-.088-1.78-.343a5.074 5.074 0 0 1 .848-1.799c.395-.532.89-.972 1.451-1.293Z" fill="#96D9C9"/><path d="M94.39 269.475s12.747-29.899 8.486-36.571c-5.89-9.218-13.214 19.072-13.57 16.592-3.372-23.484-2.668-53.102-18.442-57.591-8.968-2.552.594 22.123-.52 28.476-1.115 6.353-16.032-16.338-25.217-28.344-9.186-12.007-14.813-5.384-9.488 9.184 5.15 14.086 23.806 30.591 19.63 32.003-4.177 1.412-27.594-18.209-31.122-10.978-4.328 8.866 31.745 24.518 28.127 26.284-3.619 1.766-20.805-6.537-20.805.518s23.752 8.829 23.128 11.883c-1 4.944-15.916-7.716-17.083-.854-1.19 7.017 20.249 7.549 19.5 13.038-.43 3.154-5.83-.147-6.807 4.19-2.227 9.889 31.562 23.745 31.562 23.745l12.621-31.575Z" fill="#3C8F7C"/><path d="M117.433 276.06c5.13 2.553 3.742 8.892 3.742 8.892s13.906-11.536 19.106-4.803c5.199 6.734 2.466 19.931-3.631 22.076-6.098 2.145-59.134.643-59.134.643s35.303-29.105 39.917-26.808Z" fill="#96D9C9"/><path d="m81.094 292.324.488-.446c-11.143-14.42-15.901-32.492-17.93-45.121-2.203-13.699-1.757-24.117-1.752-24.221l-.677-.129c0 .105-.454 10.593 1.76 24.369 2.048 12.739 6.85 30.973 18.11 45.548Z" fill="#50BFA5"/><path d="M63.393 220.246c.325 3.111-.428 5.802-1.892 7.529-1.974-2.2-3.218-5.024-3.545-8.044-.325-3.111.428-5.8 1.892-7.528 1.974 2.2 3.218 5.024 3.545 8.043ZM59.046 227.495c1.91 2.568 2.89 5.584 2.888 8.268-2.315-.429-4.759-2.015-6.67-4.585-1.912-2.57-2.89-5.584-2.888-8.268 2.315.428 4.76 2.016 6.67 4.585ZM57.253 236.154c2.48 1.479 4.429 3.788 5.545 6.567-2.011.851-4.581.629-7.11-.852-2.479-1.476-4.429-3.782-5.546-6.559 2.011-.855 4.582-.638 7.111.844ZM61.774 250.409a5.532 5.532 0 0 1 2.49 2.578c-.814.431-1.883.427-2.976-.11a5.54 5.54 0 0 1-2.49-2.579c.811-.43 1.891-.427 2.976.111ZM63.146 255.725a5.536 5.536 0 0 1 2.49 2.58c-.813.429-1.883.426-2.975-.112a5.532 5.532 0 0 1-2.49-2.579c.81-.432 1.883-.42 2.975.111ZM65.214 233.352c1.79-1.362 4.007-1.599 6.07-.864-.098 2.373-1.076 4.575-2.86 5.935-1.785 1.36-4.006 1.6-6.07.864.099-2.373 1.075-4.575 2.86-5.935ZM66.403 241.458c1.79-1.362 4.005-1.599 6.068-.864-.097 2.373-1.075 4.575-2.86 5.935-1.785 1.36-4.005 1.598-6.07.864.1-2.375 1.076-4.575 2.862-5.935ZM67.182 253.162c1.163-.885 2.603-1.037 3.952-.569-.064 1.545-.7 2.978-1.863 3.865-1.163.886-2.603 1.037-3.95.568.064-1.547.7-2.978 1.861-3.864ZM89.496 303.145s-16.29-22.218-23.101-25.623c-7.256-3.629-.965 8.943-.965 8.943s-15.514-16.191-19.158-12.149c-3.644 4.043.247 7.826.247 7.826s-12.992-2.563-14.886 2.606c-2.91 7.951 18.457 11.896 18.457 11.896s-10.225-2.39-8.185 2.532c3.088 7.418 47.591 3.969 47.591 3.969Z" fill="#50BFA5"/><path d="M31.637 284.748c1.893-5.169 14.886-2.606 14.886-2.606s-3.892-3.788-.248-7.826c3.645-4.037 15.79 5.505 15.79 5.505s-1.883-8.775 7.239-1.872c6.517 4.929 19.093 23.32 19.093 23.32l-56.76-16.521Z" fill="#96D9C9"/><path d="M77.52 302.811s25.954 1.95 31.011-2.988c5.056-4.938.039-13.882.039-13.882s8.907-7.48 8.769-12.364c-.139-4.884-5.943-2.406-5.943-2.406s9.836-13.453 7.503-16.013c-4.346-4.765-15.717 9.219-15.717 9.219s3.375-6.652-.186-7.708c-5.368-1.594-9.317 14.813-9.317 14.813s1-6.479-2.699-5.619c-6.64 1.544-13.46 36.948-13.46 36.948Z" fill="#50BFA5"/><path d="M99.074 303.115H96.9l8.097-44.69 1.806.364-7.73 44.326Z" fill="#0E2E35"/><path d="m341.965 226.79 2.095-5.398c1.627-3.975 5.787-5.866 9.293-4.234 8.835 4.111 12.676 15.555 8.58 25.558l-2.995 7.316c-1.313 3.204-.856 6.728.914 9.215 1.606 2.257 1.869 5.396.755 8.123l-1.58 3.858a15.317 15.317 0 0 1-3.609 5.317 14.218 14.218 0 0 1-5.373 3.224 8.634 8.634 0 0 0-3.25 1.98 9.298 9.298 0 0 0-2.172 3.243l-2.237 5.462c-2.471 6.035-8.796 8.918-14.128 6.438l-3.039-1.428c-5.331-2.48-7.646-9.385-5.176-15.422 3.997-7.217 3.678-12.604 2.261-16.258a23.139 23.139 0 0 1-1.528-8.549c.034-2.93.62-5.823 1.723-8.508l.316-.77a21.673 21.673 0 0 1 5.001-7.425 20.14 20.14 0 0 1 7.438-4.575c2.412-.816 4.933-2.817 6.711-7.167Z" fill="#50BFA5"/><path d="M303.884 302.617c4.287-5.926 28.113-37.398 43.438-42.689 16.919-5.84.976 17.354.976 17.354s30.019-34.991 41.036-31.837c10.098 2.891 0 24.582 0 24.582s11.374-12.012 25.166-12.012c13.424 0-9.32 43.669-10.55 45.95l-100.066-1.348Z" fill="#96D9C9"/><path d="M394.33 235.264c-12.266 20.42-21.201 44.115-26.319 68.212l-1.215-.015c5.097-23.593 14.347-47.473 26.591-67.871 2.845-4.741 5.918-10.37 11.248-12.214.103-.034.142.132.044.173-4.868 1.953-7.687 7.276-10.349 11.715ZM370.799 303.52c14.219-20.623 31.174-38.949 50.336-54.411.197-.159.464.209.265.372-18.812 15.399-35.432 33.603-49.346 54.049l-1.255-.01Z" fill="#3C8F7C"/><path d="M395.451 222.6c.316.496 1.525 1.787 1.879 3.483.477 1.609.101 3.629.061 3.552-.091.041 1.397-1.302 1.862-3.438.604-2.048.183-4.888-.567-5.83-1.302-2.127-3.557-2.343-3.994-1.311-.467 1.025.123 2.419.759 3.544ZM398.384 240.827c-.457-.346-1.644-1.659-3.227-2.074-1.5-.539-3.397-.173-3.332-.133-.039.097 1.249-1.466 3.262-1.918 1.932-.602 4.589-.097 5.456.72 1.97 1.421 2.128 3.835 1.152 4.283-.971.479-2.266-.178-3.311-.878ZM393.956 248.815c-.457-.346-1.645-1.659-3.228-2.074-1.5-.541-3.396-.173-3.331-.135-.039.097 1.249-1.463 3.253-1.918 1.933-.601 4.59-.097 5.457.721 1.97 1.42 2.128 3.835 1.152 4.282-.962.481-2.258-.176-3.303-.876ZM409.752 267.344c-.458-.345-1.645-1.659-3.23-2.073-1.498-.541-3.395-.173-3.33-.135-.039.096 1.249-1.464 3.254-1.919 1.933-.601 4.589-.097 5.456.721 1.97 1.421 2.128 3.835 1.152 4.283-.96.48-2.261-.177-3.302-.877ZM417.821 259.767c-.457-.345-1.645-1.66-3.228-2.074-1.5-.54-3.397-.172-3.332-.134-.039.096 1.25-1.464 3.254-1.919 1.933-.601 4.59-.095 5.457.721 1.97 1.422 2.128 3.837 1.151 4.284-.961.477-2.258-.179-3.302-.878Z" fill="#3C8F7C"/><path d="M389.255 231.639c.385.436 1.77 1.508 2.372 3.123.707 1.509.634 3.561.584 3.499-.085.055 1.187-1.521 1.332-3.708.291-2.124-.545-4.858-1.425-5.662-1.593-1.883-3.857-1.716-4.137-.624-.309 1.089.48 2.368 1.274 3.372ZM382.744 240.699c.548.31 2.461.864 3.416 2.399 1.09 1.359 1.228 3.683 1.157 3.63-.103.1 1.363-2.247 1.301-4.75.137-2.504-1.259-5.173-2.489-5.665-2.277-1.383-5.188-.149-5.427 1.199-.268 1.366.9 2.428 2.042 3.187ZM375.89 254.42c.589.208 2.565.418 3.755 1.751 1.288 1.144 1.789 3.412 1.713 3.377-.085.118.992-2.454.533-4.914-.262-2.494-2.058-4.873-3.348-5.14-2.46-.945-5.138.785-5.162 2.156-.055 1.389 1.264 2.227 2.509 2.77ZM396.17 263.979c.428.286 1.953.865 2.659 2.159.813 1.172.802 3.071.745 3.028-.09.074 1.23-1.74 1.313-3.783.244-2.029-.749-4.285-1.723-4.762-1.778-1.254-4.214-.435-4.481.647-.296 1.089.599 2.025 1.487 2.711ZM406.725 225.813c-.255-.226-.904-1.058-1.823-1.382-.866-.391-2.003-.265-1.966-.236-.027.056.799-.808 2.008-.983 1.168-.264 2.719.157 3.198.681 1.108.933 1.102 2.37.506 2.592-.595.223-1.332-.21-1.923-.672Z" fill="#3C8F7C"/><path d="M404.269 219.982c.011.356.234 1.41-.091 2.382-.239.967-1.027 1.851-1.027 1.8-.057-.01 1.089-.172 1.952-1.094.91-.824 1.543-2.392 1.447-3.111-.016-1.503-1.087-2.376-1.614-2.006-.527.37-.651 1.249-.667 2.029ZM423.632 252.047c-.255-.226-.904-1.058-1.824-1.382-.865-.389-2.002-.265-1.965-.235-.027.055.799-.808 2.008-.982 1.168-.266 2.718.155 3.198.681 1.108.931 1.102 2.368.506 2.592-.595.225-1.334-.212-1.923-.674Z" fill="#3C8F7C"/><path d="M420.666 246.166c.039.345.342 1.382.092 2.381-.163.985-.881 1.934-.884 1.886-.057 0 1.072-.277 1.866-1.262.844-.902 1.354-2.518 1.202-3.233-.131-1.497-1.265-2.273-1.762-1.858-.496.414-.558 1.308-.514 2.086ZM407.315 280.032c.081.548.616 2.138.286 3.709-.195 1.555-1.258 3.078-1.264 3.002-.093 0 1.653-.503 2.834-2.097 1.262-1.463 1.952-4.021 1.68-5.126-.296-2.328-2.115-3.456-2.861-2.779-.747.678-.791 2.079-.675 3.291ZM396.281 284.242c.081.548.617 2.138.286 3.709-.195 1.556-1.257 3.08-1.265 3.004-.091 0 1.654-.505 2.835-2.098 1.263-1.464 1.961-4.022 1.681-5.126-.298-2.327-2.115-3.457-2.862-2.78-.746.678-.79 2.081-.675 3.291ZM385.069 289.569c.083.548.618 2.138.287 3.709-.196 1.555-1.257 3.08-1.265 3.004-.091 0 1.654-.503 2.835-2.099 1.263-1.463 1.953-4.021 1.681-5.126-.298-2.326-2.115-3.456-2.863-2.779-.749.678-.789 2.081-.675 3.291Z" fill="#3C8F7C"/><path d="M410.607 291.02c-.226-.452-.664-1.942-1.731-2.903-.955-1.025-2.538-1.521-2.504-1.461-.063.057 1.484-.613 3.188-.141 1.696.328 3.551 1.797 3.924 2.777.998 1.901.253 3.802-.651 3.752-.905-.05-1.676-1.063-2.226-2.024ZM399.131 295.35c-.226-.451-.665-1.943-1.731-2.904-.955-1.024-2.538-1.52-2.503-1.46-.066.059 1.482-.614 3.187-.14 1.696.327 3.551 1.797 3.922 2.777.999 1.891.254 3.803-.651 3.751-.917-.03-1.675-1.063-2.224-2.024ZM419.349 286.563c-.199-.252-.659-1.127-1.447-1.579-.727-.51-1.789-.598-1.754-.566-.034.045.855-.592 1.984-.537 1.106-.033 2.453.629 2.808 1.192.862 1.048.631 2.354.053 2.448-.577.093-1.181-.432-1.644-.958Z" fill="#3C8F7C"/><path d="M418.024 280.811c-.045.325 0 1.328-.459 2.154-.369.838-1.225 1.504-1.217 1.459-.05-.021 1.02.029 1.953-.65.958-.588 1.781-1.901 1.807-2.581.22-1.382-.618-2.359-1.157-2.115-.538.244-.79 1.027-.927 1.733Z" fill="#3C8F7C"/><path d="M359.577 127.725c.674.088 1.246-.709 1.079-1.383-.27-1.075-.524-2.155-.784-3.233-.573-2.384-.666-2.458-.508-2.659.376-.48 1.28.078 1.596.318.7.529 1.277 1.252 2.074 1.627 1.556.727 3.091-.213 2.846-2.102-.231-1.728-.558-3.456-.893-5.185 1.626.923 3.229 1.901 4.866 2.797a.698.698 0 0 0 .78-.036.805.805 0 0 0 .301-.766l-.857-7.506c-.044-.384-.447-2.147-.083-2.344.325-.173 1.419.548 1.679.676 1.441.708 1.952.938 6.695 3.13.564.261 1.293-.434 1.088-1.061-2.004-6.183-1.275-6.456-2.299-7.557-.229-.247-.545-.131-.672.156-.325.731-.353.93.259 3.769.159.736.335 1.465.527 2.188-5.704-2.777-7.08-3.629-8.284-2.457-.835.809-.639 1.161.356 9.678-1.657-1.063-3.367-2.011-5.071-3.003a.783.783 0 0 0-.905.034.878.878 0 0 0-.293.394.934.934 0 0 0-.043.5c.857 6.19 1.116 6.315 1.054 6.882 0 .015.288.19-.162 0-.77-.325-1.884-2.009-3.451-2.301-1.38-.257-2.972.498-3.102 2.137-.077.952.149 1.368.894 4.865a20.238 20.238 0 0 0-5.092.145c-.768.116-1.259.297-1.864.817-.488.427-.309 1.428.325 1.589 1.795.451 2.968-.759 7.944-.109Z" fill="#F7CC7F"/><path d="M386.65 152.657a29.74 29.74 0 0 1 1.056-4.886c.096-.312.208-.917.564-1.019.856-.247 1.569 1.414 4.165 2.938 1.128.66 3.404 2.133 4.415.579.518-.795.651-1.965.908-2.881.192-.692.41-1.383.614-2.074 4.132 2.779 3.797 2.978 4.952 2.827a.6.6 0 0 0 .381-.268.669.669 0 0 0 .094-.475c-.311-1.17-.27-.85-5.449-4.41-.471-.325-1.215-.146-1.386.48-.26.942-1.22 5.271-1.417 5.783-.037-.048-.265-.073-.312-.09-1.863-.665-3.244-1.891-4.744-3.18-1.228-1.056-3.127-1.67-4.098.097-.527.957-1.027 3.121-1.342 4.808-2.484-1.803-4.959-3.63-7.453-5.408-.488-.346-1.381-.173-1.529.529a151.423 151.423 0 0 1-1.372 5.785 17.907 17.907 0 0 1-3.836-3.887c-.8-1.105-2.523 0-.325 2.642a17.014 17.014 0 0 0 4.204 3.839c.532.345 1.334.173 1.534-.531a96.913 96.913 0 0 0 1.405-5.719c2.498 1.763 5.011 3.498 7.507 5.261.615.436 1.366 0 1.464-.74Z" fill="#F47458"/><path d="M385.443 193.886c-.153.584.092 1.065.581 1.328 2.386 1.28 4.813 2.317 7.475 2.661 1.384.173 1.498-2.055.163-2.314-2.084-.408-4.204-.944-6.166-1.867a23.985 23.985 0 0 1 1.952-4.566c.308-.548.163-1.46-.498-1.647-1.641-.468-7.908-2.036-7.981-1.982a.414.414 0 0 0 .044-.173c.075-.735 1.218-2.938 1.472-4.043.283-1.23-1.111-2.151-2.004-2.535-1.811-.781-4.279 0-5.88-1.348-1.539-1.293 1.242-3.583.47-6.303-.593-2.097-2.603-2.159-5.725-2.487-.764-.081-1.511-.151-2.087.489a.564.564 0 0 0-.157.3.586.586 0 0 0 .04.341c.641 1.156 1.816 1.098 4.641 1.476.36.048.999.016 1.229.382.764 1.21-1.414 3.211-.793 5.669.489 1.917 2.278 2.807 3.929 3.111 1.292.235 3.049-.049 4.183.829-.392 1.131-.813 2.261-1.126 3.414-.336 1.261.021 2.326 1.183 2.807 1.284.532 2.707.772 4.038 1.123.896.237 1.789.477 2.689.705a27.195 27.195 0 0 0-1.672 4.63ZM333.354 97.829c-5.327-8.367-10.465-3.975-9.15-.788.563 1.365 2.081 1.942 3.205.954.516-.455.252-1.556-.473-1.546-.599.01-.544-.69.11-.765.882-.097 1.664.816 2.234 1.41 1.331 1.383 3.073 3.166 2.752 5.358-.488 3.263-4.412 5.634-8.35 2.397-5.68-4.666-2.247-15.728 5.079-15.429 3.986.163 7.498 3.094 8.863 7.048.267.773 1.267.284 1.206-.427-.469-5.378-5.73-9.035-10.565-8.791-4.959.249-8.605 4.571-9.296 9.644-.726 5.319 2.19 10.859 7.348 11.897 5.663 1.136 10.767-5.112 7.037-10.962Z" fill="#3CB4C5"/><path d="M377.502 209.877c-.911-1.21-3.135-2.493-4.373-1.074-.576.659-.643 1.677.122 2.247.765.57 1.65.322 2.061 1.336.353.864-.257 1.768-.934 2.235-2.058 1.424-5.142-.189-6.67-1.822-2.421-2.592-1.693-7.152 2.016-8.27 1.161-.346 2.334-.133 3.514-.059.651.042 1.233-.89.685-1.439-2.104-2.112-5.639-1.373-7.733.401-2.198 1.861-3.074 5.226-2.316 8.073.846 3.178 3.689 5.53 6.595 6.408 6.037 1.824 9.983-4.092 7.033-8.036Z" fill="#3C8F7C"/><path d="M100.61 154.794c.162-4.115-.407-8.182-2.128-12.014-1.48-3.297-5.143-5.169-8.483-5.173-10.605-.015-11.954 14.987-18.709 20.773-2.063 1.768-4.368 3.208-6.32 5.116-7.209 7.041-3.955 20.074 2.66 26.246 4.594 4.284 11.81 6.718 17.472 3.368 2.955-1.747 5.206-4.652 6.796-7.836 2.268-4.518 3.73-9.732 5.344-14.547 1.716-5.124 3.156-10.461 3.368-15.933Z" fill="#0E2E35"/><path d="M77.864 156.493s-7.79-14.883-9.69-18.047c-1.903-3.165-6.834-15.728-7.01-16.231-.175-.503 3.4-6.445 2.603-6.649-.797-.204-1.675 3.137-2.528 2.747-.852-.391-3.34-8.442-3.824-8.042-.908.746 1.34 4.988.857 5.256-.483.267-1.952-4.667-2.902-4.523-.95.143 1.809 4.523 1.542 4.91-.267.387-3.13-3.739-3.648-2.859-.281.477 2.634 3.6 2.073 3.892-.561.292-3.151-1.728-3.426-1.142-.275.586 2.398 1.382 3.197 2.938.799 1.555 2.16 2.247 2.725 5.147.564 2.9 1.41 13.405 4.304 18.643 2.895 5.239 9.262 16.837 9.262 16.837l6.465-2.877Z" fill="#F79C8D"/><path d="m119.084 211.263-12.112-9.852s-1.218-9.184-2.845-17.338c-2.045.615-3.888 2.324-5.935 2.921l3.076 18.252 15.874 8.735 4.483 6.143 1.02-6.307-3.561-2.554Z" fill="#F48C7F"/><path d="M102.337 174.728c-3.314-10.715-7.018-10.256-7.018-10.256l2.865 22.522c2.046-.596 4.718-1.924 6.753-2.539-.672-3.386-1.786-7.088-2.6-9.727Z" fill="#F7CC7F"/><path d="M67.455 287.325s-.746 5.531-2.032 7.323c-.43.6-1.22 1.359-1.737 2.442-.806 1.689-.36 4.2.234 5.583.306.71-.021.708.674.938 2.056.678 4.243-.465 5.118-2.568a13.812 13.812 0 0 0 1.005-4.718c.221-5.028 1.686-7.584 1.686-7.584l-4.948-1.416ZM89.945 289.857s.462 6.245.088 8.274c-.202 1.085-1.318 3.323-.813 4.345.504 1.021 1.096 1.279 1.096 1.279l13.276.228c.723.012.245-.484-.337-.942-.955-.75-1.725-1.246-4.773-2.822-.199-.102-.923-.595-1.185-.764a9.425 9.425 0 0 1-1.898-1.793c-.954-1.133-1.037-6.633-1.037-6.633l-4.417-1.172Z" fill="#F7A491"/><path d="M100.322 206.861s1.67 10.136.574 16.783c-1.097 6.647-6.368 68.253-6.368 68.253l-5.857.345s-1.226-25.734-1.007-29.313c.22-3.58 1.953-9.567 1.953-9.567l-.584-20.777 7.389-27.297 3.9 1.573Z" fill="#13375B"/><path d="M83.114 204.728s-4.609 7.413-5.707 13.548c-1.098 6.136.813 24.99-1.301 33.03-1.14 4.352-5.475 11.071-6.134 16.695-.659 5.624-3.24 20.356-3.24 20.356l5.856 1.239 13.6-36.79 10.667-33.253 2.733-17.126-16.474 2.301Z" fill="#355389"/><path d="M86.846 162.557s-6.104-.416-8.518 2.396c-2.415 2.812 5.357 25.06 5.796 28.634.44 3.574-2.238 13.094-2.238 13.094s14.337 3.083 18.435.187c0 0 .44-25.735 0-28.291-.439-2.556-4.098-12.962-4.976-13.975-.879-1.013-8.499-2.045-8.499-2.045Z" fill="#FAE0B2"/><path d="M88.878 153.836s-.03.192-.088.519c-.271 1.567-1.32 6.769-2.028 8.199-.856 1.728 2.928 7.238 6.572 6.567 1.084-.2-.917-5.064-.813-5.579.185-.985.434-2.331.69-3.71l.426-2.309c.39-2.107.707-3.83.707-3.83l-5.466.143Z" fill="#F7A491"/><path d="M88.79 154.355c.057-.327.088-.519.088-.519l5.458-.145s-.325 1.728-.707 3.83c-.135.738-.28 1.523-.425 2.297-.843-.133-1.723-.571-2.603-1.397a7.417 7.417 0 0 1-1.973-3.136c.063-.369.12-.678.162-.93Z" fill="#F47458"/><path d="M92.552 140.58s-2.579-.318-4.185 1.912c-1.605 2.229-3.351 9.12.651 12.865 4.002 3.745 7.972-.494 8.552-4.99.581-4.495.819-9.949-5.018-9.787Z" fill="#F7A491"/><path d="M98.758 150.3c-.478.994-1.28 1.543-1.79 1.229-.509-.315-.538-1.383-.06-2.368.479-.985 1.28-1.543 1.79-1.229.51.315.538 1.376.06 2.368Z" fill="#F7A491"/><path d="M92.84 139.844s-3.436 6.554-5.896 6.856c-2.46.302-2.782 3.785-2.782 3.785s.88-8.025 3.314-9.571c2.434-1.547 5.364-1.07 5.364-1.07Z" fill="#0E2E35"/><path d="M70.11 299.937c-3.188.62-5.31-1.372-6.414-2.864-.814 1.69-1.207 4.212-.61 5.6.525 1.223 2.06 1.189 3.268 1.237 1.277.05 2.266-.708 2.9-1.901.349-.659.636-1.353.856-2.072ZM97.304 299.453c-3.511.963-6.106.308-7.559-.316-.374 1.132-.87 2.554-.607 3.375.326 1.004.781 1.23 1.186 1.243 3.209.089 11.748.212 14.193.245a.38.38 0 0 0 .218-.066.408.408 0 0 0 .149-.179.447.447 0 0 0-.056-.457c-.607-.772-7.262-3.674-7.524-3.845Z" fill="#B75742"/><path d="M87.588 148.347c.2 1.163-.202 2.231-.898 2.383-.696.153-1.422-.667-1.627-1.83-.205-1.163.202-2.231.898-2.383.697-.152 1.429.658 1.627 1.83Z" fill="#F7A491"/><path d="M75.709 151.669s8.622 9.9 9.896 13.889c1.274 3.988-1.248 9.695-4.743 9.946-3.494.251-11.267-17.57-11.267-17.57l6.114-6.265ZM334.325 124.64H227.171c-3.396 0-6.148 2.924-6.148 6.531v165.064c0 3.607 2.752 6.531 6.148 6.531h107.154c3.395 0 6.148-2.924 6.148-6.531V131.171c0-3.607-2.753-6.531-6.148-6.531Z" fill="#F7CC7F"/><path d="M330.843 139.291h-99.065v27.174h99.065v-27.174Z" fill="#3CB4C5"/><path d="M234.405 143.202h96.438v-3.911h-99.065v27.172h2.627v-23.261Z" fill="#3CB4C5" style="mix-blend-mode:multiply" opacity=".5"/><path d="M259.729 174.215h-27.478c-.261 0-.473.225-.473.503v8.783c0 .278.212.503.473.503h27.478c.262 0 .474-.225.474-.503v-8.783c0-.278-.212-.503-.474-.503ZM295.049 174.215h-27.478c-.262 0-.474.225-.474.503v8.783c0 .278.212.503.474.503h27.478c.261 0 .473-.225.473-.503v-8.783c0-.278-.212-.503-.473-.503ZM330.37 174.215h-27.478c-.261 0-.473.225-.473.503v8.783c0 .278.212.503.473.503h27.478c.262 0 .473-.225.473-.503v-8.783c0-.278-.211-.503-.473-.503ZM252.718 191.757h-19.881c-.585 0-1.059.504-1.059 1.125v19.696c0 .621.474 1.125 1.059 1.125h19.881c.585 0 1.059-.504 1.059-1.125v-19.696c0-.621-.474-1.125-1.059-1.125Z" fill="#F47458"/><path d="M278.406 191.757h-19.881c-.585 0-1.059.504-1.059 1.125v19.696c0 .621.474 1.125 1.059 1.125h19.881c.585 0 1.059-.504 1.059-1.125v-19.696c0-.621-.474-1.125-1.059-1.125ZM304.096 191.757h-19.88c-.585 0-1.06.504-1.06 1.125v19.696c0 .621.475 1.125 1.06 1.125h19.88c.585 0 1.059-.504 1.059-1.125v-19.696c0-.621-.474-1.125-1.059-1.125Z" fill="#FAE0B2"/><path d="M252.718 218.812h-19.881c-.585 0-1.059.504-1.059 1.125v19.696c0 .621.474 1.125 1.059 1.125h19.881c.585 0 1.059-.504 1.059-1.125v-19.696c0-.621-.474-1.125-1.059-1.125Z" fill="#F47458"/><path d="M278.406 218.812h-19.881c-.585 0-1.059.504-1.059 1.125v19.696c0 .621.474 1.125 1.059 1.125h19.881c.585 0 1.059-.504 1.059-1.125v-19.696c0-.621-.474-1.125-1.059-1.125ZM304.096 218.812h-19.88c-.585 0-1.06.504-1.06 1.125v19.696c0 .621.475 1.125 1.06 1.125h19.88c.585 0 1.059-.504 1.059-1.125v-19.696c0-.621-.474-1.125-1.059-1.125ZM326.358 191.755h-13.031a4.252 4.252 0 0 0-1.717.367 4.458 4.458 0 0 0-1.455 1.036c-.416.444-.746.97-.97 1.549a5.02 5.02 0 0 0-.339 1.825v39.449a5.02 5.02 0 0 0 .339 1.825c.224.579.554 1.106.97 1.549.416.444.91.796 1.455 1.037.544.24 1.127.365 1.717.366h13.031a4.271 4.271 0 0 0 1.717-.366 4.482 4.482 0 0 0 1.454-1.037c.416-.443.746-.97.971-1.549a5.04 5.04 0 0 0 .338-1.825v-39.449a5.04 5.04 0 0 0-.338-1.825 4.814 4.814 0 0 0-.971-1.549 4.464 4.464 0 0 0-1.454-1.036 4.255 4.255 0 0 0-1.717-.367Z" fill="#FAE0B2"/><path d="M252.718 245.869h-19.881c-.585 0-1.059.503-1.059 1.125v19.695c0 .622.474 1.126 1.059 1.126h19.881c.585 0 1.059-.504 1.059-1.126v-19.695c0-.622-.474-1.125-1.059-1.125Z" fill="#F47458"/><path d="M278.406 245.869h-19.881c-.585 0-1.059.503-1.059 1.125v19.695c0 .622.474 1.126 1.059 1.126h19.881c.585 0 1.059-.504 1.059-1.126v-19.695c0-.622-.474-1.125-1.059-1.125ZM304.096 245.869h-19.88c-.585 0-1.06.503-1.06 1.125v19.695c0 .622.475 1.126 1.06 1.126h19.88c.585 0 1.059-.504 1.059-1.126v-19.695c0-.622-.474-1.125-1.059-1.125ZM329.784 245.869h-19.88c-.585 0-1.059.503-1.059 1.125v19.695c0 .622.474 1.126 1.059 1.126h19.88c.585 0 1.059-.504 1.059-1.126v-19.695c0-.622-.474-1.125-1.059-1.125Z" fill="#FAE0B2"/><path d="M252.718 272.923h-19.881c-.585 0-1.059.504-1.059 1.125v19.696c0 .622.474 1.125 1.059 1.125h19.881c.585 0 1.059-.503 1.059-1.125v-19.696c0-.621-.474-1.125-1.059-1.125Z" fill="#F47458"/><path d="M278.406 272.923h-19.881c-.585 0-1.059.504-1.059 1.125v19.696c0 .622.474 1.125 1.059 1.125h19.881c.585 0 1.059-.503 1.059-1.125v-19.696c0-.621-.474-1.125-1.059-1.125ZM304.096 272.923h-19.88c-.585 0-1.06.504-1.06 1.125v19.696c0 .622.475 1.125 1.06 1.125h19.88c.585 0 1.059-.503 1.059-1.125v-19.696c0-.621-.474-1.125-1.059-1.125Z" fill="#FAE0B2"/><path d="M329.784 272.923h-19.88c-.585 0-1.059.504-1.059 1.125v19.696c0 .622.474 1.125 1.059 1.125h19.88c.585 0 1.059-.503 1.059-1.125v-19.696c0-.621-.474-1.125-1.059-1.125Z" fill="#E87B50"/><path d="M246.544 251.074v1.11l-5.08 11.324h-1.626l5.061-10.999v-.038h-5.707v-1.397h7.352ZM264.615 260.352c0-1.57.88-2.679 2.315-3.329l-.018-.057c-1.292-.65-1.848-1.728-1.848-2.793 0-1.97 1.562-3.31 3.607-3.31 2.261 0 3.392 1.513 3.392 3.061 0 1.053-.488 2.181-1.92 2.909v.057c1.453.612 2.351 1.702 2.351 3.213 0 2.162-1.741 3.615-3.967 3.615-2.44 0-3.912-1.55-3.912-3.366Zm6.281-.076c0-1.513-.987-2.247-2.565-2.717-1.365.421-2.101 1.382-2.101 2.563-.053 1.263.843 2.373 2.333 2.373 1.417 0 2.333-.939 2.333-2.219Zm-4.342-6.222c0 1.242.878 1.911 2.224 2.295 1.005-.365 1.776-1.129 1.776-2.257 0-.996-.556-2.028-1.973-2.028-1.31.006-2.027.923-2.027 1.995v-.005ZM272.509 283.884c0 4.228-1.465 6.568-4.056 6.568-2.278 0-3.823-2.276-3.859-6.395 0-4.169 1.687-6.465 4.056-6.465 2.461-.006 3.859 2.329 3.859 6.292Zm-6.336.19c0 3.234.934 5.07 2.369 5.07 1.616 0 2.387-2.009 2.387-5.185 0-3.061-.736-5.069-2.369-5.069-1.378-.002-2.383 1.795-2.383 5.181l-.004.003ZM291.732 262.322c.425.025.852.006 1.274-.057a4.286 4.286 0 0 0 2.44-1.21c.771-.745 1.327-1.835 1.542-3.308h-.054a3.44 3.44 0 0 1-1.226 1.01 3.253 3.253 0 0 1-1.52.33c-2.098 0-3.444-1.686-3.444-3.803 0-2.352 1.596-4.419 3.983-4.419 2.386 0 3.859 2.074 3.859 5.242 0 2.736-.863 4.647-2.009 5.835a5.694 5.694 0 0 1-3.393 1.664c-.48.083-.967.114-1.454.095l.002-1.379Zm.574-7.154c0 1.556.88 2.64 2.243 2.64 1.06 0 1.884-.555 2.298-1.302.102-.185.152-.397.143-.612 0-2.122-.736-3.748-2.387-3.748-1.345 0-2.297 1.261-2.297 3.022ZM243.851 235.922v-3.386h-5.419v-1.109l5.206-7.938h1.702v7.729h1.626v1.318h-1.626v3.386h-1.489Zm0-4.704v-4.148c0-.65.018-1.302.054-1.952h-.054a40.267 40.267 0 0 1-.968 1.836l-2.854 4.217v.04l3.822.007ZM271.721 224.904h-4.449l-.449 3.194a5.95 5.95 0 0 1 .951-.076 4.682 4.682 0 0 1 2.512.671c.914.554 1.669 1.624 1.669 3.193 0 2.43-1.812 4.247-4.343 4.247-1.274 0-2.351-.382-2.908-.766l.396-1.28a4.978 4.978 0 0 0 2.494.691c1.49 0 2.765-1.037 2.765-2.696-.018-1.608-1.023-2.755-3.356-2.755-.54.006-1.079.05-1.614.133l.753-5.968h5.581l-.002 1.412ZM297.475 224.674a5.346 5.346 0 0 0-1.185.078c-2.476.439-3.786 2.371-4.056 4.418h.054a3.52 3.52 0 0 1 1.248-1.073 3.312 3.312 0 0 1 1.57-.362c2.063 0 3.517 1.588 3.517 4.018 0 2.277-1.454 4.38-3.877 4.38-2.494 0-4.127-2.074-4.127-5.299 0-2.449.826-4.379 1.975-5.605a6.187 6.187 0 0 1 3.732-1.835c.38-.064.764-.097 1.149-.097v1.377Zm-.449 7.175c0-1.781-.951-2.85-2.405-2.85a2.496 2.496 0 0 0-1.33.431c-.399.27-.72.649-.931 1.098a1.508 1.508 0 0 0-.179.747c.036 2.046.914 3.557 2.565 3.557 1.365 0 2.28-1.205 2.28-2.983ZM242.398 198.622h-.036l-2.028 1.166-.304-1.282 2.547-1.454h1.346v12.434h-1.525v-10.864ZM264.76 209.486v-1.037l1.238-1.282c2.979-3.021 4.324-4.629 4.342-6.504 0-1.262-.574-2.42-2.315-2.42-1.059 0-1.938.574-2.476 1.051l-.503-1.185a4.918 4.918 0 0 1 3.303-1.262c2.512 0 3.579 1.835 3.579 3.614 0 2.297-1.562 4.148-4.02 6.676l-.934.918v.038h5.24v1.396l-7.454-.003ZM291.193 207.555a5.04 5.04 0 0 0 2.585.783c2.027 0 2.655-1.382 2.637-2.409-.017-1.74-1.488-2.487-3.014-2.487h-.882v-1.263h.879c1.148 0 2.603-.631 2.603-2.104 0-.993-.594-1.875-2.047-1.875a4.111 4.111 0 0 0-2.333.823l-.413-1.224c.61-.479 1.789-.956 3.05-.956 2.297 0 3.339 1.454 3.339 2.964 0 1.283-.718 2.372-2.153 2.926v.04c1.435.306 2.603 1.454 2.603 3.194 0 1.989-1.454 3.73-4.253 3.73-1.301 0-2.458-.439-3.032-.842l.431-1.3ZM242.777 290.093c.778 0 1.408-.672 1.408-1.501 0-.828-.63-1.5-1.408-1.5-.777 0-1.407.672-1.407 1.5 0 .829.63 1.501 1.407 1.501ZM328.201 217.049h-7.405v-7.893h-1.904v7.893h-7.404v2.029h7.404v7.893h1.904v-7.893h7.405v-2.029ZM299.083 288.568l-3.92-4.177 3.92-4.179-1.008-1.075-3.919 4.179-3.921-4.179-1.009 1.075 3.921 4.179-3.921 4.177 1.009 1.075 3.921-4.179 3.919 4.179 1.008-1.075ZM325.587 256.409h-12.4v2.024h12.4v-2.024ZM326.044 279.804h-12.4v2.024h12.4v-2.024ZM326.044 284.901h-12.4v2.023h12.4v-2.023Z" fill="#fff"/><path d="m248.008 26.282-.033-.012a13.095 13.095 0 0 0-.927-.316c-.107-.033-.213-.068-.325-.099-.113-.031-.228-.059-.344-.088l-.348-.086c-.111-.026-.221-.049-.325-.071a11.429 11.429 0 0 0-.376-.071l-.325-.054c-.137-.02-.274-.038-.41-.055l-.3-.035a11.23 11.23 0 0 0-.472-.038l-.249-.019a14.715 14.715 0 0 0-.732-.019H130.32a13.986 13.986 0 0 0-2.312.194c-.251.04-.5.088-.747.142-3.166.7-6.039 2.452-8.204 5.004-2.164 2.552-3.508 5.77-3.835 9.187a18.07 18.07 0 0 0-.078 1.654v245.127c-.002 3.32.957 6.56 2.748 9.281 1.791 2.721 4.326 4.791 7.262 5.928l.078.028c.29.111.584.209.88.301.108.033.215.067.326.096.11.03.228.061.343.09l.348.087.334.071.376.07.325.054c.137.021.273.038.41.055l.299.035c.163.015.314.028.472.038.083 0 .163.014.249.017.242.012.488.021.732.021h112.521c3.763 0 7.392-1.486 10.181-4.169 2.79-2.683 4.541-6.371 4.915-10.349.05-.543.078-1.094.078-1.652V41.493c.002-3.32-.957-6.562-2.749-9.283-1.791-2.721-4.327-4.79-7.264-5.928Z" fill="#F47458"/><path d="M250.661 47.364H122.504v233.394h128.157V47.364Z" fill="#F3FCFF"/><path d="M213.965 37.105h-54.557c-.078 0-.142.067-.142.15v2.623c0 .084.064.15.142.15h54.557c.078 0 .142-.066.142-.15v-2.623c0-.083-.064-.15-.142-.15Z" fill="#fff"/><path opacity=".3" d="M186.508 298.712c3.477 0 6.295-3.004 6.295-6.71 0-3.705-2.818-6.709-6.295-6.709-3.476 0-6.294 3.004-6.294 6.709 0 3.706 2.818 6.71 6.294 6.71Z" fill="#DAEEF7"/><path opacity=".2" d="M250.661 270.965H122.504v9.793h128.157v-9.793ZM250.661 47.364H122.504v12.385h128.157V47.364Z" fill="#3CB4C5"/><path d="M148.342 53.07H37.041a6.62 6.62 0 0 0-2.668.57 6.963 6.963 0 0 0-2.26 1.61 7.456 7.456 0 0 0-1.508 2.406 7.813 7.813 0 0 0-.525 2.836v48.961a7.811 7.811 0 0 0 .526 2.836 7.46 7.46 0 0 0 1.508 2.406 6.95 6.95 0 0 0 2.26 1.609 6.623 6.623 0 0 0 2.667.569h87.627c3.546 5.275 9.977 14.722 10.544 14.722.532 0-.489-8.922-1.212-14.722h14.342a6.626 6.626 0 0 0 2.668-.569 6.947 6.947 0 0 0 2.259-1.609 7.451 7.451 0 0 0 1.508-2.406 7.8 7.8 0 0 0 .526-2.836V60.492a7.824 7.824 0 0 0-.525-2.836 7.465 7.465 0 0 0-1.508-2.407 6.975 6.975 0 0 0-2.26-1.61 6.622 6.622 0 0 0-2.668-.568Z" fill="#DAEEF7" style="mix-blend-mode:multiply" opacity=".3"/><path d="M143.746 40.366h-111.3a6.619 6.619 0 0 0-2.67.57 6.962 6.962 0 0 0-2.261 1.612 7.457 7.457 0 0 0-1.507 2.41 7.812 7.812 0 0 0-.523 2.84v48.954a7.81 7.81 0 0 0 .526 2.836c.349.899.861 1.717 1.508 2.406a6.965 6.965 0 0 0 2.259 1.61 6.622 6.622 0 0 0 2.667.569h87.625c3.547 5.275 9.976 14.722 10.544 14.722.53 0-.488-8.923-1.214-14.722h14.343a6.625 6.625 0 0 0 2.668-.568 6.967 6.967 0 0 0 2.26-1.611 7.455 7.455 0 0 0 1.507-2.406c.349-.9.528-1.863.526-2.836V47.798a7.795 7.795 0 0 0-.522-2.84 7.46 7.46 0 0 0-1.506-2.409 6.967 6.967 0 0 0-2.26-1.613 6.622 6.622 0 0 0-2.67-.57Z" fill="#9BC1F9"/><path d="M91.714 56.246H37.15c-.086 0-.156.074-.156.165v2.9c0 .092.07.166.156.166h54.564c.086 0 .156-.074.156-.165v-2.9c0-.092-.07-.166-.156-.166ZM60.478 64.776H37.15c-.086 0-.156.075-.156.166v2.9c0 .092.07.166.156.166h23.328c.086 0 .156-.074.156-.165v-2.9c0-.092-.07-.166-.156-.166ZM136.715 64.776h-73.26c-.086 0-.156.075-.156.166v2.9c0 .092.07.166.156.166h73.26c.086 0 .156-.074.156-.165v-2.9c0-.092-.07-.166-.156-.166ZM136.938 56.246H97.636c-.087 0-.156.074-.156.165v2.9c0 .092.07.166.156.166h39.302c.086 0 .156-.074.156-.165v-2.9c0-.092-.07-.166-.156-.166ZM136.938 81.496H37.15c-.086 0-.156.075-.156.166v2.9c0 .092.07.166.156.166h99.788c.086 0 .156-.074.156-.166v-2.9c0-.092-.07-.166-.156-.166ZM88.55 73.306h-51.4c-.086 0-.156.074-.156.166v2.9c0 .091.07.166.156.166h51.4c.086 0 .156-.075.156-.166v-2.9c0-.092-.07-.166-.156-.166ZM136.938 73.306H91.865c-.086 0-.156.074-.156.166v2.9c0 .091.07.166.156.166h45.073c.086 0 .156-.075.156-.166v-2.9c0-.092-.07-.166-.156-.166ZM235.058 26.413h33.931c.078 0 .14-.066.14-.148v-2.591c0-.082-.062-.149-.14-.149h-33.931c-.078 0-.14.067-.14.149v2.59c0 .083.062.15.14.15Z" fill="#fff"/><path d="M224.87 15.397h99.435a5.91 5.91 0 0 1 2.383.508 6.208 6.208 0 0 1 2.019 1.438 6.64 6.64 0 0 1 1.347 2.15c.312.804.472 1.665.47 2.534v43.745a6.96 6.96 0 0 1-.47 2.533 6.673 6.673 0 0 1-1.347 2.15 6.228 6.228 0 0 1-2.019 1.437 5.914 5.914 0 0 1-2.383.508h-78.284c-3.169 4.713-8.914 13.152-9.421 13.152-.474 0 .439-7.97 1.083-13.152H224.87c-1.651-.005-3.232-.706-4.397-1.949-1.164-1.242-1.817-2.925-1.814-4.68V22.028c-.003-1.754.649-3.438 1.814-4.68 1.165-1.244 2.746-1.945 4.397-1.95Z" fill="#DAEEF7" style="mix-blend-mode:multiply" opacity=".3"/><path d="M228.977 4.05h99.434c1.653.004 3.236.704 4.402 1.947 1.167 1.244 1.82 2.928 1.818 4.683v43.742c.001.87-.159 1.73-.471 2.533a6.639 6.639 0 0 1-1.347 2.15 6.207 6.207 0 0 1-2.019 1.438 5.914 5.914 0 0 1-2.383.507h-78.285c-3.167 4.713-8.912 13.153-9.42 13.153-.475 0 .44-7.971 1.084-13.153h-12.813a5.914 5.914 0 0 1-2.383-.508 6.207 6.207 0 0 1-2.019-1.437 6.639 6.639 0 0 1-1.347-2.15 6.982 6.982 0 0 1-.471-2.533V10.68c-.001-.869.158-1.73.47-2.533a6.675 6.675 0 0 1 1.347-2.15 6.23 6.23 0 0 1 2.019-1.438 5.916 5.916 0 0 1 2.384-.508Z" fill="#9BC1F9"/><path d="M291.608 21.123h30.12c.077 0 .14-.067.14-.149v-2.59c0-.082-.063-.149-.14-.149h-30.12c-.077 0-.14.067-.14.149v2.59c0 .082.063.149.14.149ZM301.473 30.554h20.255c.077 0 .14-.066.14-.148v-2.591c0-.082-.063-.149-.14-.149h-20.255c-.077 0-.14.067-.14.149v2.59c0 .083.063.15.14.15ZM273.725 30.554h24.989c.077 0 .14-.066.14-.148v-2.591c0-.082-.063-.149-.14-.149h-24.989c-.077 0-.14.067-.14.149v2.59c0 .083.063.15.14.15ZM235.207 30.554h35.037c.077 0 .14-.066.14-.148v-2.591c0-.082-.063-.149-.14-.149h-35.037c-.077 0-.14.067-.14.149v2.59c0 .083.063.15.14.15ZM235.059 21.123h50.707c.077 0 .14-.067.14-.149v-2.59c0-.082-.063-.149-.14-.149h-50.707c-.077 0-.14.067-.14.149v2.59c0 .082.063.149.14.149ZM235.058 49.028h86.668c.078 0 .14-.066.14-.148v-2.591c0-.082-.062-.149-.14-.149h-86.668c-.077 0-.14.067-.14.149v2.59c0 .083.063.15.14.15ZM277.09 39.901h44.638c.077 0 .14-.067.14-.149v-2.59c0-.082-.063-.149-.14-.149H277.09c-.078 0-.14.067-.14.149v2.59c0 .082.062.149.14.149ZM235.058 39.901h39.523c.077 0 .14-.067.14-.149v-2.59c0-.082-.063-.149-.14-.149h-39.523c-.078 0-.14.067-.14.149v2.59c0 .082.062.149.14.149Z" fill="#fff"/><path d="M154.56 135.844s-24.839 3.803-21.044 29.276c3.539 23.745 24.841 18.923 30.311 17.733 5.469-1.191-9.267-47.009-9.267-47.009Z" fill="#F7CC7F"/><path d="M163.833 182.853c2.548-.553.714-10.783-1.973-21.559-9.145 1.901-19.332 4.03-27.983 5.843 4.414 21.448 24.644 16.872 29.956 15.716Z" fill="#E8BA70"/><path d="M168.855 187.256s5.457 20.695 4.02 36.774c-1.34 14.994.67 17.494 5.917 17.018 5.247-.475 17.976-3.802 18.198-9.16.223-5.357-2.115-32.846-10.94-47.603-8.826-14.756-17.195 2.971-17.195 2.971Z" fill="#96D9C9"/><path d="M177.336 178.63c-3.498 2.498-8.479 8.632-8.479 8.632s5.456 20.694 4.02 36.773c-1.341 14.995.67 17.494 5.917 17.018 1.924-.172 4.854-.734 7.809-1.635 2.089-36.859-6.861-56.622-9.267-60.788Z" fill="#50BFA5"/><path d="M229.813 85.684s-41.196 31.865-54.51 41.503l-7.787 12.318 5.532 35.881 13.312 6.962 65.061 13.654-1.507-7.766-11.806-34.809-6.029-39.631-1.759-24.369-.507-3.743Z" fill="#96D9C9"/><path d="m238.102 153.43-1.58-10.391-65.838 17.035 2.359 15.312 13.313 6.962 65.06 13.655-1.508-7.765-11.806-34.808Z" fill="#50BFA5"/><path d="M175.303 127.187s-5.442 30.438 11.053 55.161c0 0 .921 2.29-1.089 3.719l-12.279 3.332s-5.694 2.142-10.495-6.546c-4.801-8.689-13.287-28.205-8.261-49.744 0 0 1.226-5.832 7.926-6.903l8.931-1.786s3.97-.655 4.214 2.767Z" fill="#3C8F7C"/><path d="M229.813 85.684s10.718-8.391 16.919-8.211c6.202.18 12.392 8.925 16.412 16.064 4.02 7.14 14.569 35.168 15.574 54.096 1.006 18.929.838 45.878-7.87 49.084-8.709 3.206-19.427-.714-19.427-.714s-14.068-12.851-22.272-52.839c-8.204-39.988.664-57.48.664-57.48Z" fill="#256653"/><path d="M264.674 197.789s10.018-13.827 4.913-51.186C261.548 87.794 241.279 78.9 241.279 78.9s-14.992 12.141-.657 68.966c11.8 46.838 24.052 49.923 24.052 49.923Z" fill="#3C8F7C"/><path d="M235.819 123.959c.976 6.924 2.511 14.848 4.796 23.915a262.822 262.822 0 0 0 3.433 12.412c6.229-2.298 16.306-8.061 12.003-22.677-3.987-13.543-14.367-14.371-20.232-13.65Z" fill="#F7CC7F"/><path d="M240.622 147.867a261.68 261.68 0 0 0 3.432 12.412c6.143-2.267 16.027-7.903 12.173-22.077l-16.935 4.16c.409 1.792.852 3.626 1.33 5.505Z" fill="#E8BA70"/><path d="M186.356 182.348c-5.169-7.748-8.183-16.058-9.887-23.816l-21.764 4.38a82.2 82.2 0 0 0 7.788 19.941c4.801 8.688 10.495 6.547 10.495 6.547l12.279-3.333c2.009-1.429 1.089-3.719 1.089-3.719Z" fill="#3C8F7C" style="mix-blend-mode:multiply" opacity=".3"/><path d="m396.304 60.112-.099 11.464 6.832-6.84 21.553-15.554-17.591 4.077s-8.785 3.538-9.228 4.075c-.442.538-1.467 2.778-1.467 2.778Z" fill="#DD513A"/><path d="m387.636 54.337 36.959-5.15-28.293 10.927-8.666-5.776Z" fill="#F47458"/><path d="m409.508 69.896-10.653-7.026 25.74-13.683-15.087 20.709Z" fill="#F47458"/><path d="M349.435 107.424a26.71 26.71 0 0 1 .57-5.302l.857.202c-.163.814-.301 1.64-.392 2.454a25.364 25.364 0 0 0-.163 2.657v.772l-.877.021c.005-.266.004-.538.005-.804Zm2.41-11.106a35.934 35.934 0 0 1 2.821-5.313l.724.53a35.289 35.289 0 0 0-2.753 5.184l-.792-.4Zm27.409-5.486a2.766 2.766 0 0 1-.162-.084l.393-.835.135.07c.03.009.061.015.091.018.488.062 1.735-.104 2.382-.64.57-.489.992-1.146 1.212-1.888l.83.306a4.956 4.956 0 0 1-1.503 2.32c-.898.746-2.413.908-3.025.83a1.06 1.06 0 0 1-.353-.097Zm-21.009-4.598a47.093 47.093 0 0 1 4.13-4.218l.567.714a45.913 45.913 0 0 0-4.046 4.138l-.651-.634Zm16.696-2.183a12.294 12.294 0 0 1 0-2.766c.06-.523.148-1.042.264-1.555l.854.22c-.108.475-.19.958-.246 1.444a11.127 11.127 0 0 0 0 2.54c.07.583.194 1.156.371 1.712l-.829.302c-.2-.616-.34-1.251-.418-1.897h.004Zm3.64-5.279-.117-.043.273-.888.127.045c1.905.691 3.566 2.037 4.555 3.695l-.739.503c-.891-1.481-2.386-2.688-4.099-3.312Zm-11.188.194c.93-.442 2.629-1.21 3.55-1.383a23.834 23.834 0 0 1 2.012-.288l.08.931c-.615.06-1.251.152-1.944.278-.604.111-1.822.59-3.342 1.31l-.356-.848Zm10.187-4.867a20.557 20.557 0 0 1 3.859-4.578l.56.72a19.574 19.574 0 0 0-3.687 4.375l-.732-.517ZM386.715 67.207a16.17 16.17 0 0 1 2.686-.915l-.195-.912c-.966.236-1.911.557-2.826.96l.335.867Z" fill="#6DB1B5"/><path d="m295.361 180.141-.449.429a.537.537 0 0 1-.392.159.54.54 0 0 1-.384-.18l-7.972-9.345a.598.598 0 0 1-.131-.423.614.614 0 0 1 .059-.219.554.554 0 0 1 .133-.177l.449-.431a.53.53 0 0 1 .776.021l7.971 9.347a.618.618 0 0 1 .073.641.573.573 0 0 1-.133.178Z" fill="#13375B"/><path d="M322.4 172.548c-1.067-.924-9.309 2.939-9.205 4.275.104 1.336-5.753 14.345-5.753 14.345l-10.12-8.602c-.09-.311-1.05-3.656-1.097-4.255-.049-.628-1.759-1.729-2.553-1.556-.793.173.679 1.224.776 1.419.264.531-.754.729-.754.729s-2.929-1.711-2.987-2.716c-.059-1.006-.666-3.111-1.302-2.674-.325.228-.325 1.728-.221 2.433-.187-.805-.454-1.714-.713-1.806-.473-.173-.707.477-.621.794.086.316.849 3.734 1.082 4.12.232.385 4.949 4.431 5.629 5.313 0 0 13.091 15.952 14.023 16.368.814.367 3.734-5.131 6.488-8.779 2.755-3.649 10.658-16.521 7.328-19.408Z" fill="#F7A491"/><path d="M348.809 289.845s1.789 1.872 1.84 2.558c.05.686.163 8.044-.576 8.73-.739.686-2.891 1.173-2.198 1.946.524.584 4.555.46 7.23.302.779-.045 1.757-6.68 2.066-7.656.449-1.416 1.541-4.606 1.139-5.593-.199-.48-1.15-1.469-2.489-2.392-1.411-.971-2.766-3.131-2.766-3.131l-4.246 5.236Z" fill="#F48C7F"/><path d="M330.179 294.202s1.609 4.84 1.611 4.86c.12.769.592 2.667.592 3.365 0 2.622-11.097-2.227-8.611-3.389.226-.105.932-.945 1.006-1.839.113-1.382-.934-3.1-.934-3.1l6.336.103Z" fill="#F7A491"/><path d="M312.77 203.935s-.813 8.689-.813 8.814c0 14.058-2.615 41.517-2.115 44.16 1.212 6.446 14.266 39.331 14.266 39.331l7.054-.899-9.197-39.367 3.384-15.847 4.788-31.327-17.367-4.865Z" fill="#355389"/><path d="m336.445 211.62 1.339 8.237 3.623 33.898 13.792 33.131s-1.939 4.821-4.802 5.498l-21.953-34.015-13.637-43.525.478-9.679 21.16 6.455Z" fill="#13375B"/><path d="m309.958 183.242 9.782 1.064s.449-8.548.449-12.627c0-4.946-.395-11.32-.957-11.182-1.573.384-3.691 1.31-4.952 3.158-4.365 6.393-4.322 19.587-4.322 19.587Z" fill="#86B1F2"/><path d="M314.763 170.806c-.205 1.509-3.966 42.517-3.966 42.517 17.813 9.17 27.642 1.633 27.642 1.633s-.582-28.799.116-32.719c.462-2.592 1.039-19.825-.537-20.307-2.024-.619-4.344-1.277-6.872-1.556-2.159-.238-10.542-.376-12.039.161-.003.002-3.486 3.923-4.344 10.271Z" fill="#9BC1F9"/><path d="M355.731 287.687s-4.145 12.443-5.769 13.043c-.431.161-2.499.565-2.889 1.54-.117.294 0 1.274 0 1.274h8.642s1.093-5.482 1.526-7.892c0 0 2.287-5.886 2.033-6.42-.253-.534-3.543-1.545-3.543-1.545ZM333.014 303.292l-1.273-4.278s-2.668 1.21-4.002 1.002c-1.334-.207-3.94-1.002-3.94-1.002-5.326 1.868-9.69 2.765-8.896 4.278h18.111Z" fill="#184655"/><path d="M308.584 200.737a2.17 2.17 0 0 1-.268-.212c.316-4.019.259-7.911-.924-9.228l.556-1.256c1.372 1.13 2.022 4.134 1.767 9.008-.04.34-.1.677-.181 1.009-.397.465-.758.766-.95.679Z" fill="#F7A491"/><path d="M356.081 213.76c.01-.088.01-.177 0-.264-.262-2.84-2.475-26.689-2.847-27.702-.337-.916-10.258-16.042-10.258-16.042l-4.88 7.086 9.541 13.567c.215.865 3.658 16.96 3.658 16.96s.706 2.938 1.021 4.693a37.98 37.98 0 0 1-.411 1.152 10.664 10.664 0 0 1-1.029 1.762c-.426.608-1.138 1.939-1.218 2.297a54.43 54.43 0 0 0-.386 1.793c-.102.521-.244 1.124-.268 1.406-.066.267-.17.522-.308.757a.478.478 0 0 0 .042.509.41.41 0 0 0 .461.144c.347-.123.615-.6.783-.899.468-.841.719-2.376.836-2.295.117.081.529 2.688.594 2.981.065.294.558 3.322.836 3.875.278.553.651.46.745.114.085-.299-.307-4.533-.307-4.533s-.049-.539.172-.372c.221.168.586 4.013.74 4.575.155.562.506.864.804.41.364-.55-.26-4.627-.26-4.627s-.07-.518.135-.465c.205.054.462 3.324.623 3.607.161.284.563.386.755-.088.226-.557-.36-4.191-.36-4.191s.028-.289.163-.192c.135.097.535 2.871.8 3.128a.272.272 0 0 0 .314.069.272.272 0 0 0 .093-.069c.488-.345-.259-2.995-.251-4.307.009-1.311-.564-2.789-.393-4.352l.06-.487Z" fill="#F8A492"/><path d="m350.732 179.332-8.475 6.067s-4.776-7.577-7.34-10.275c-3.213-3.379 1.17-13.732 3.239-13.146 4.633 1.31 12.576 17.354 12.576 17.354Z" fill="#9BC1F9"/><path d="m330.523 151.51 1.267 8.906s-4.629 10.605-7.393 9.678c-2.318-.772-.891-10.155-.891-10.155s1.262-5.038.883-7.56c-.379-2.521 6.134-.869 6.134-.869Z" fill="#F7A491"/><path d="M324.39 152.386c-.378-2.522 6.133-.876 6.133-.876l.106.74a4.204 4.204 0 0 1-.706 1.24c-1.455 1.668-3.729 2.671-5.694 2.747.196-1.36.317-2.817.161-3.851Z" fill="#F47458"/><path d="M331.592 138.91c.183-.07 1.475 10.144-.977 12.963-2.451 2.819-7.223 3.731-8.936 1.517-1.894-2.449-1.79-13.427 2.011-16.318 3.8-2.892 7.902 1.838 7.902 1.838Z" fill="#F7A491"/><path d="M325.141 131.6c2.135.489 4.074 1.668 5.553 3.375 1.337.173 3.154.956 5.03 4.267 2.307 4.072.603 8.585-2.083 10.799-2.685 2.214-2.648 4.77-2.648 4.77l-.425-1.322a7.869 7.869 0 0 1-.336-3.111 6.438 6.438 0 0 1 .434-1.872c.651-1.479-1.388-2.461-1.952-3.692-.44-.947-.461-3.111-1.154-4.678l-.825-1.196s-1.906-1.58-3.771-1.134c-1.864.446-1.602-7.029 2.177-6.206Z" fill="#184655"/><path d="M328.834 146.627c-.02 1.247.511 2.266 1.186 2.28.675.014 1.238-.988 1.258-2.235.019-1.246-.511-2.262-1.178-2.279-.667-.017-1.246.988-1.266 2.234Z" fill="#F7A491"/><path d="m324.855 149.507-3.693-.204s.011 1.5 1.627 1.64c1.984.171 2.066-1.436 2.066-1.436Z" fill="#fff"/><path d="m158.977 302.915 1.806-.365-7.804-44.125-1.806.364 7.804 44.126ZM138.848 303.115h-2.172l8.095-44.69 1.808.364-7.731 44.326ZM118.868 303.115l1.763.023-7.761-44.513-1.806.365 7.804 44.125Z" fill="#0E2E35"/><path d="M126.749 198.235c-7.159.815-16.409 1.678-25.705 18.493-10.155 18.37-4.809 45.812 3.207 53.437 8.015 7.625 34.193 17.041 56.2 2.938 0 0 13.288-8.541 6.468-22.718-10.493-21.817-9.011-26.367-13.703-34.912-4.692-8.545-11.285-18.972-26.467-17.238Z" fill="#FAE0B2"/><path d="M101.049 216.721c6.345-11.473 12.667-15.515 18.319-17.187-2.187 2.42-4.403 5.514-6.62 9.527-10.157 18.37-4.811 45.812 3.205 53.437 7.109 6.763 28.501 14.929 48.601 6.862a20.818 20.818 0 0 1-4.098 3.743c-22.007 14.096-48.185 4.68-56.201-2.938-8.015-7.618-13.361-35.074-3.206-53.444Z" fill="#F7CC7F"/><path d="m149.71 226.157 1.839 5.88-5.602-2.349 3.763-3.531Z" fill="#F79C8D"/><path d="M143.935 208.663c.374.016 1.397.38 2.894 3.384 1.912 3.837 4.705 15.429 4.705 15.429l-8.338 3.299-1.072-2.419-1.763-18.626s3.471-1.072 3.574-1.067Z" fill="#DD513A"/><path d="M132.922 206.992c2.384 0 8.283.741 11.021 1.671 0 0 2.012 18.367-1.811 32.32-.856 3.124.708 12.951.708 12.951l-24.706-.345s2.928-23.756 1.824-27.593c-1.105-3.836-1.129-17.21-1.129-17.21l5.551-1.016a52.542 52.542 0 0 1 8.542-.778Z" fill="#F47458"/><path d="M130.035 288.032s.546 6.701 1.552 8.557c1.005 1.856-.054 5.012-.106 5.444-.052.432-2.115 1.053-5.396.681-3.282-.371-3.226-1.175-2.961-2.475.265-1.299 2.009-2.969 2.115-4.206.106-1.238-1.006-5.692-1.006-5.692l5.802-2.309Z" fill="#F7A491"/><path d="M140.045 248.406s17.055-1.006 20.863 1.445c3.809 2.45-.688 7.481-.688 7.481s-13.885 6.412-37.13 7.838c-5.504.346-5.979-15.247-4.949-16.536 1.03-1.29 21.904-.228 21.904-.228Z" fill="#256653"/><path d="M125.677 303.229c-3.378-.382-2.96-2.145-2.688-3.482.163-.839 1.139-1.826 1.718-2.766.301.254.792.705 2.258 1.167 1.523.477 3.61-.469 4.941-1.061.346 1.514.498 3.071.452 4.628-.055.453-3.304 1.896-6.681 1.514Z" fill="#184655"/><path d="M127.541 261.368c.68 5.477 4.054 32.746 4.054 32.746l-7.828 1.037s-9.627-35.591-9.132-41.035c.494-5.444 4.096-5.902 4.096-5.902s7.006-1.346 8.81 13.154Z" fill="#3C8F7C"/><path d="M118.552 210.829c2.31-.921 3.44 21.19 3.752 30.292 4.09.418 11.225 0 12.995-.139.837-.067 2.766-.815 3.591-.931.825-.116 1.627-.173 2.042-.102.153.028 4.417 1.88 4.781 2.287.454.502 1.676 1.774 1.464 2.324-.211.55-2.351-1.531-2.351-1.531l-1.049-.626c1.302 1.355 3.796 3.139 3.436 3.789-.36.649-2.595-1.177-4.196-2.42 1.373 1.317 3.078 3.676 2.686 4.042-.353.331-2.294-2.398-4.366-3.185-.77-.29-1.536.519-2.14.614-.444.071-1.138.223-1.566.091l-2.245-.675c-.765.074-.785.554-1.556.729-.896.202-2.368.416-3.509.712-6.576 1.708-8.769 2.499-10.781 2.497-6.094.006-6.447-35.592-.988-37.768Z" fill="#F7A491"/><path d="M114.168 231.588c-.433-9.323-.369-20.813 4.555-22.774 1.941-.773 5.369 3.878 4.748 22.964-2.631.23-6.492.415-9.303-.19Z" fill="#DD513A"/><path d="M141.688 227.583h-.501l-7.537 19.679.519-.083 7.519-19.596Z" fill="#F79C8D"/><path d="M152.933 293.76s-.682 2.326.54 3.864c1.222 1.539 6.306 3.049 6.973 3.882.667.833.617 1.542.617 1.542l-14.265-.417.163-4.576.651-3.284 5.321-1.011Z" fill="#F7A491"/><path d="M154.353 298.392s-3.665 1.574-5.435.643c-1.77-.932-1.718-1.191-2.23-.844-.513.348-.695 4.637-.695 4.637l16.039.501c1.116-.027 1.681-.9.773-1.648-.621-.519-1.339-.865-1.747-1.105-1.256-.764-6.705-2.184-6.705-2.184Z" fill="#184655"/><path d="M152.385 252.7c1.103-2.464 3.61-5.674 8.022-3.741 4.207 1.844 5.338 6.374 4.01 11.012-1.327 4.639-10.068 31.912-10.373 35.662l-6.977.049s1.267-21.594 1.578-26.813c.299-5.023 1.832-11.903 3.74-16.169Z" fill="#3C8F7C"/><path d="M163.714 227.581h-23.328a1.467 1.467 0 0 0-.848.276c-.25.18-.445.435-.559.732l-7.182 18.666h-12.866a.635.635 0 0 0-.46.202.715.715 0 0 0-.19.489c0 .183.068.359.19.489a.63.63 0 0 0 .46.202h36.605c.493 0 .976-.152 1.39-.438.413-.285.74-.692.941-1.171l7.232-17.172a1.711 1.711 0 0 0-.115-1.534 1.579 1.579 0 0 0-.547-.54 1.461 1.461 0 0 0-.723-.201Z" fill="#000"/><path d="M151.155 238.456c-.163.838-.845 1.4-1.534 1.253-.69-.147-1.12-.946-.962-1.785.158-.84.844-1.4 1.533-1.254.688.147 1.114.948.963 1.786Z" fill="#fff"/><path d="M138.454 184.559a17.116 17.116 0 0 1-2.063-.877c-.756-.387-1.736-.841-2.354-.942-1.302-.214-3.538-.07-4.773 1.352-1.539 1.773-4.272.32-3.723 9.608.625 10.511 6.126 9.357 6.261 9.179.135-.178 4.906-6.725 4.906-6.725s1.669 3.878 1.669 3.736c0-.141 8.525-12.309.077-15.331Z" fill="#0E2E35"/><path d="m134.281 203.656.475 3.756s1.064 5.411-.306 6.455c-1.369 1.044-5.821-6.609-5.821-6.609l.471-9.518 5.181 5.916Z" fill="#F7A491"/><path d="M128.948 200.824c1.131 3.247 3.823 5.241 5.735 6.016l-.402-3.184-5.182-5.916-.151 3.084Z" fill="#F47458"/><path d="M133.999 187.382c2.901-.497 5.503 1.981 5.429 5.066a40.212 40.212 0 0 1-.397 4.817c-.631 4.336-3.416 8.154-5.256 7.814-1.84-.341-6.473-4.081-5.658-10.253.504-3.809 2.839-6.922 5.882-7.444Z" fill="#F7A491"/><path d="M129.394 195.568c-.155.954-.874 1.618-1.606 1.481-.732-.137-1.197-1.018-1.043-1.97.155-.953.876-1.618 1.606-1.481.731.136 1.199 1.012 1.043 1.97Z" fill="#F7A491"/><path d="M128.351 193.592s2.227.588 3.052-.933c.825-1.521 3.781-4.805 7.536-3.443 3.755 1.362-3.304-3.309-3.605-3.309a2528 2528 0 0 1-3.905-.026s-2.779 2.419-2.88 2.694c-.1.275-.901 3.177-.901 3.177l.703 1.84Z" fill="#0E2E35"/><path d="m132.425 199.939 4.051.823s-.388 1.621-2.179 1.313c-2.188-.373-1.872-2.136-1.872-2.136ZM90.565 152.001l4.051.822s-.385 1.621-2.177 1.314c-2.184-.375-1.874-2.136-1.874-2.136Z" fill="#fff"/><path d="M418.602 284.057a60.345 60.345 0 0 0-10.461 1.988c-6.262 1.749-12.284 4.331-18.211 7.075-2.914 1.35-5.847 2.681-8.706 4.16-1.335.692-2.681 1.383-3.904 2.271-1.66 1.195-4.249 3.588-4.555 3.976l1.36.043c.93-.806 4.343-3.868 9.083-6.293 11.225-5.747 22.893-11.64 35.417-13.102a.072.072 0 0 0 .02-.009.08.08 0 0 0 .015-.017.06.06 0 0 0 .009-.022.089.089 0 0 0 0-.023.085.085 0 0 0-.009-.022.049.049 0 0 0-.016-.016.04.04 0 0 0-.02-.009.081.081 0 0 0-.022 0Z" fill="#3C8F7C"/></svg>