<svg width="149" height="151" fill="none" xmlns="http://www.w3.org/2000/svg"><path fill-rule="evenodd" clip-rule="evenodd" d="M111.43 2.12 2.25 116.79a4.654 4.654 0 0 0-.813 5.174c.266.561.64 1.063 1.103 1.476l28.65 25.68a4.637 4.637 0 0 0 6.38-.18L146.88 39.48a4.639 4.639 0 0 0 .11-6.44L118.21 2.12a4.652 4.652 0 0 0-6.78 0Zm-100 119.9a2.795 2.795 0 0 1-3.044.581 2.796 2.796 0 0 1-1.716-2.581 2.804 2.804 0 0 1 1.716-2.581 2.795 2.795 0 0 1 3.044.581 2.801 2.801 0 0 1 .846 1.989 2.812 2.812 0 0 1-.816 2.001l-.03.01Z" fill="url('#paint0_linear_702_84')"/><defs><linearGradient id="paint0_linear_702_84" x1="51891.9" y1="70551.8" x2="51891.9" y2="56665.7" gradientUnits="userSpaceOnUse"><stop offset=".02" stop-color="#FFDBE7"/><stop offset="1" stop-color="#FFE8DE"/></linearGradient></defs></svg>