<svg width="90" height="90" fill="none" xmlns="http://www.w3.org/2000/svg"><path fill-rule="evenodd" clip-rule="evenodd" d="m81.85 56.79 6.84-1.14 1.07-14.61-6.6-2.13-3.82-11.55 4-5.65-9.57-11.08-6.18 3.16-10.87-5.46-1.14-6.85L40.97.41l-2.12 6.61-11.56 3.82-6.37-4.55-10.77 9.3 3.58 7-5.47 10.88-6.84 1.14-1.08 14.6 6.61 2.13 3.82 11.56-4 5.64 9.57 11.09 6.17-3.17 10.88 5.47 1.14 6.84 14.61 1.07 2.12-6.6 11.56-3.83 5.64 4 11.09-9.57-3.17-6.18 5.47-10.87ZM33.61 67.12a24.8 24.8 0 1 1 33.3-11 24.789 24.789 0 0 1-33.3 11Z" fill="url('#paint0_linear_702_49')"/><defs><linearGradient id="paint0_linear_702_49" x1="2.182" y1="58.298" x2="85.021" y2="31.097" gradientUnits="userSpaceOnUse"><stop offset=".03" stop-color="#9042FF"/><stop offset="1" stop-color="#6E7CFF"/></linearGradient></defs></svg>