<svg width="51" height="50" fill="none" xmlns="http://www.w3.org/2000/svg"><path d="M3.7 12.32a20.44 20.44 0 0 1 7.44-8.41A19.44 19.44 0 0 1 21.65.97a18 18 0 0 1 8.7 2 14.82 14.82 0 0 1 5.75 5.29V1.62h14.38v46.9H36.07v-6.64a15.47 15.47 0 0 1-5.84 5.3 18.09 18.09 0 0 1-8.7 2c-3.69.03-7.31-1.013-10.42-3a20.61 20.61 0 0 1-7.44-8.49 31 31 0 0 1 0-25.42l.03.05Zm29.42 4.29a9.672 9.672 0 0 0-7.27-3.11 9.769 9.769 0 0 0-7.27 3.06c-2 2.047-3 4.863-3 8.45a11.89 11.89 0 0 0 3 8.53 10 10 0 0 0 14.54 0c2-2.067 3-4.897 3-8.49s-1-6.407-3-8.44Z" fill="url('#paint0_linear_702_207')"/><defs><linearGradient id="paint0_linear_702_207" x1="25.72" y1="49.22" x2="25.72" y2=".97" gradientUnits="userSpaceOnUse"><stop stop-color="#FF224D"/><stop offset=".97" stop-color="#C3005A"/></linearGradient></defs></svg>