<svg width="113" height="26" fill="none" xmlns="http://www.w3.org/2000/svg"><path d="M.53 8.55a42.47 42.47 0 0 1 28.34-7.43 48.34 48.34 0 0 1 14.49 3.62 58.777 58.777 0 0 1 12.76 7.77 75.156 75.156 0 0 0 12.4 8.19 43.93 43.93 0 0 0 6.91 2.69 58.43 58.43 0 0 0 7.27 1.56c4.928.65 9.904.87 14.87.66 5-.15 9.93-.61 14.87-1.22-9.84 1.37-19.87 2.21-29.78.88a57.469 57.469 0 0 1-7.33-1.53 45.754 45.754 0 0 1-7-2.67 75.143 75.143 0 0 1-12.51-8.17 60.471 60.471 0 0 0-12.63-7.78 47.55 47.55 0 0 0-14.35-3.67 43.93 43.93 0 0 0-14.77 1.09A40.53 40.53 0 0 0 .53 8.55Z" fill="#614881"/></svg>