<svg width="49" height="52" fill="none" xmlns="http://www.w3.org/2000/svg"><path fill-rule="evenodd" clip-rule="evenodd" d="m45.75 26.86-.22-3.79 2.21-7.2-4.61-7-7.49-.82-3.39-1.71L27.12.82l-8.38.49-4.45 6.07-3.22 2.07-7.3 1.67L0 18.62l3 6.89.22 3.79L1 36.5l4.61 7 7.49.82 3.39 1.71 5.13 5.52 8.45-.43 4.46-6.07 3.17-2.08 7.34-1.69 3.77-7.5-3.06-6.92ZM18.55 37.8a13 13 0 1 1 11.676-23.23A13 13 0 0 1 18.55 37.8Z" fill="url('#paint0_radial_702_39')"/><defs><radialGradient id="paint0_radial_702_39" cx="0" cy="0" r="1" gradientUnits="userSpaceOnUse" gradientTransform="rotate(26.822 -19.754 69.485) scale(20.7537)"><stop stop-color="#FF224D"/><stop offset=".01" stop-color="#FD214D"/><stop offset=".24" stop-color="#E41353"/><stop offset=".46" stop-color="#D10857"/><stop offset=".7" stop-color="#C70259"/><stop offset=".97" stop-color="#C3005A"/></radialGradient></defs></svg>