<svg width="163" height="131" fill="none" xmlns="http://www.w3.org/2000/svg"><path fill-rule="evenodd" clip-rule="evenodd" d="M133.07 1.33 2.52 90.94a4.64 4.64 0 0 0-1.09 6.56l22.72 31a4.628 4.628 0 0 0 6.27 1.14l129.65-84.41a4.64 4.64 0 0 0 1.44-6.28l-21.77-36.2a4.634 4.634 0 0 0-3.024-2.17 4.642 4.642 0 0 0-3.646.75ZM10.45 97.95a2.81 2.81 0 1 1-3.076-4.704 2.81 2.81 0 0 1 3.076 4.704Z" fill="url('#paint0_linear_702_75')"/><defs><linearGradient id="paint0_linear_702_75" x1="135.453" y1="93.505" x2="29.479" y2="38.15" gradientUnits="userSpaceOnUse"><stop offset=".02" stop-color="#C289B0"/><stop offset="1" stop-color="#FF93AC"/></linearGradient></defs></svg>