<svg width="116" height="168" fill="none" xmlns="http://www.w3.org/2000/svg"><path fill-rule="evenodd" clip-rule="evenodd" d="M70.46 2.77 1.24 145.21a4.651 4.651 0 0 0 2.26 6.26l34.3 15.56a4.648 4.648 0 0 0 6-2.08l71.62-137.1a4.637 4.637 0 0 0-1.82-6.18L76.89.77a4.62 4.62 0 0 0-6.43 2ZM11.58 147.44a2.798 2.798 0 0 1-4.238.868 2.798 2.798 0 0 1 1.462-4.96 2.802 2.802 0 0 1 3.088 3.042c-.034.367-.14.724-.312 1.05Z" fill="url('#paint0_linear_702_101')"/><defs><linearGradient id="paint0_linear_702_101" x1="41345" y1="71242.6" x2="41345" y2="62630.4" gradientUnits="userSpaceOnUse"><stop offset=".02" stop-color="#C289B0"/><stop offset="1" stop-color="#FF93AC"/></linearGradient></defs></svg>