<svg width="148" height="151" fill="none" xmlns="http://www.w3.org/2000/svg"><path fill-rule="evenodd" clip-rule="evenodd" d="M110.79 2.4 1.6 117.12a4.657 4.657 0 0 0 .29 6.65l28.65 25.66a4.649 4.649 0 0 0 6.38-.18L146.24 39.77a4.639 4.639 0 0 0 .11-6.44L117.56 2.42a4.648 4.648 0 0 0-3.381-1.476A4.639 4.639 0 0 0 110.79 2.4Zm-100 119.9a2.817 2.817 0 0 1-3.058.593 2.809 2.809 0 0 1-1.255-4.15 2.809 2.809 0 0 1 4.313-.443 2.805 2.805 0 0 1 .634 3.081c-.142.344-.35.656-.614.919h-.02Z" fill="url('#paint0_linear_702_83')"/><defs><linearGradient id="paint0_linear_702_83" x1="51880" y1="70626.7" x2="51880" y2="56739.2" gradientUnits="userSpaceOnUse"><stop offset=".02" stop-color="#C289B0"/><stop offset="1" stop-color="#FF93AC"/></linearGradient></defs></svg>