<svg width="116" height="169" fill="none" xmlns="http://www.w3.org/2000/svg"><path fill-rule="evenodd" clip-rule="evenodd" d="M70.07 3.57.84 146.01a4.651 4.651 0 0 0 2.27 6.25l34.29 15.56a4.648 4.648 0 0 0 6-2.08l71.67-137.1a4.653 4.653 0 0 0-1.82-6.18L76.54 1.56a4.63 4.63 0 0 0-6.47 2.01ZM11.19 148.23a2.793 2.793 0 0 1-2.728 1.493A2.8 2.8 0 1 1 10 144.45a2.81 2.81 0 0 1 1.19 3.78Z" fill="url('#paint0_linear_702_102')"/><defs><linearGradient id="paint0_linear_702_102" x1="79.101" y1="97.444" x2="33.454" y2="73.6" gradientUnits="userSpaceOnUse"><stop offset=".02" stop-color="#FFE5EE"/><stop offset="1" stop-color="#FFE8DE"/></linearGradient></defs></svg>