<svg width="162" height="131" fill="none" xmlns="http://www.w3.org/2000/svg"><path fill-rule="evenodd" clip-rule="evenodd" d="M132.78.98 2.23 90.59a4.64 4.64 0 0 0-1.09 6.56l22.72 31a4.65 4.65 0 0 0 6.28 1.15l129.59-84.45a4.64 4.64 0 0 0 1.44-6.28L139.4 2.37a4.65 4.65 0 0 0-3.009-2.127 4.642 4.642 0 0 0-3.611.737ZM10.16 97.59a2.8 2.8 0 1 1-3.048-4.697 2.8 2.8 0 0 1 3.048 4.697Z" fill="url('#paint0_linear_702_76')"/><defs><linearGradient id="paint0_linear_702_76" x1="135.164" y1="93.151" x2="29.19" y2="37.796" gradientUnits="userSpaceOnUse"><stop offset=".02" stop-color="#FFDBE7"/><stop offset="1" stop-color="#FFE8DE"/></linearGradient></defs></svg>