<svg width="129" height="164" fill="none" xmlns="http://www.w3.org/2000/svg"><path fill-rule="evenodd" clip-rule="evenodd" d="M85.99 2.97 1.46 136.87a4.653 4.653 0 0 0 .22 5.23c.37.497.836.915 1.37 1.23l33.13 19.53a4.638 4.638 0 0 0 6.22-1.43l85.67-128.78a4.652 4.652 0 0 0-1.16-6.34L92.61 1.66a4.63 4.63 0 0 0-6.62 1.31ZM11.51 140.18a2.81 2.81 0 1 1-4.682-3.108 2.81 2.81 0 0 1 4.682 3.108Z" fill="url('#paint0_linear_702_93')"/><defs><linearGradient id="paint0_linear_702_93" x1="45979.8" y1="71800.2" x2="45979.8" y2="61383.7" gradientUnits="userSpaceOnUse"><stop offset=".02" stop-color="#FFDBE7"/><stop offset="1" stop-color="#FFE8DE"/></linearGradient></defs></svg>