<svg width="51" height="53" fill="none" xmlns="http://www.w3.org/2000/svg"><path fill-rule="evenodd" clip-rule="evenodd" d="m47.69 27.39-.23-3.92 2.29-7.43-4.76-7.24-7.73-.85-3.5-1.77L28.47.49l-8.66.5-4.6 6.27-3.27 2.15-7.58 1.71-3.9 7.74 3.13 7.12.23 3.91-2.29 7.43 4.76 7.25 7.73.85 3.5 1.76 5.29 5.7 8.66-.5 4.6-6.26 3.28-2.16 7.57-1.73 3.9-7.74-3.13-7.1Zm-28.08 11.3a13.42 13.42 0 1 1 11.997-24.01A13.42 13.42 0 0 1 19.61 38.69Z" fill="url('#paint0_linear_702_40')"/><defs><linearGradient id="paint0_linear_702_40" x1="13.424" y1="48.568" x2="35.641" y2="4.628" gradientUnits="userSpaceOnUse"><stop stop-color="#FF427E"/><stop offset="1" stop-color="#FF5973"/></linearGradient></defs></svg>