<svg width="49" height="50" fill="none" xmlns="http://www.w3.org/2000/svg"><path d="M2.88 13.22a19.8 19.8 0 0 1 7.25-8.19c3.06-1.92.57-4.06 4.35-4.06 3.22 0 12 1.84 14.39 3.15a14.57 14.57 0 0 1 5.61 5.17V2.81h14v45.75h-14v-6.44a15 15 0 0 1-5.7 5.17c-2.43 1.31-13 2-16.22 2-3.72 0 .63-1-2.43-2.91a20.06 20.06 0 0 1-7.25-8.28 30.15 30.15 0 0 1 0-24.81v-.07Zm28.69 4.19a9.828 9.828 0 0 0-14.18 0c-1.94 2-2.91 4.74-2.91 8.23a11.63 11.63 0 0 0 2.91 8.33 9.77 9.77 0 0 0 14.18 0 11.47 11.47 0 0 0 2.91-8.28c0-3.5-.97-6.26-2.91-8.28Z" fill="url('#paint0_linear_702_206')"/><defs><linearGradient id="paint0_linear_702_206" x1="24.36" y1="49.22" x2="24.36" y2=".97" gradientUnits="userSpaceOnUse"><stop stop-color="#7C004D"/><stop offset=".97" stop-color="#AF0059"/></linearGradient></defs></svg>