<svg width="96" height="95" fill="none" xmlns="http://www.w3.org/2000/svg"><path fill-rule="evenodd" clip-rule="evenodd" d="m86.81 59.69 7.23-1.2 1.13-15.37-7-2.25-4-12.2 4.26-6-10.11-11.7-6.52 3.34-11.48-5.77-1.2-7.23L43.7.18l-2.25 7-12.2 4-6.72-4.8-11.37 9.81 3.77 7.36-5.77 11.48-7.22 1.2L.81 51.65l7 2.25 4 12.2-4.26 6 10.1 11.7 6.52-3.34 11.48 5.77 1.2 7.23 15.43 1.13 2.24-7 12.2-4 6 4.26 11.7-10.11-3.35-6.57 5.74-11.48ZM35.88 70.58a26.18 26.18 0 1 1 35.19-11.63 26.17 26.17 0 0 1-35.19 11.63Z" fill="url('#paint0_linear_702_50')"/><defs><linearGradient id="paint0_linear_702_50" x1="2.78" y1="61.315" x2="90.233" y2="32.591" gradientUnits="userSpaceOnUse"><stop offset=".03" stop-color="#BB86FF"/><stop offset="1" stop-color="#7C9FFF"/></linearGradient></defs></svg>